<?xml version="1.0" standalone="no"?>
<!DOCTYPE svg PUBLIC "-//W3C//DTD SVG 20010904//EN"
 "http://www.w3.org/TR/2001/REC-SVG-20010904/DTD/svg10.dtd">
<svg version="1.0" xmlns="http://www.w3.org/2000/svg"
 width="512.000000pt" height="512.000000pt" viewBox="0 0 512.000000 512.000000"
 preserveAspectRatio="xMidYMid meet">
<metadata>
Created by potrace 1.14, written by Peter Selinger 2001-2017
</metadata>
<g transform="translate(0.000000,512.000000) scale(0.100000,-0.100000)"
fill="#000000" stroke="none">
<path d="M1632 3689 c-89 -11 -151 -34 -223 -80 -128 -83 -225 -219 -254 -356
-21 -100 -21 -1286 0 -1386 37 -175 196 -356 363 -411 95 -32 202 -35 1042
-35 840 0 947 3 1042 35 167 55 326 236 363 411 21 100 21 1286 0 1386 -29
137 -126 273 -254 356 -75 48 -131 68 -231 81 -91 11 -1757 11 -1848 -1z
m1880 -299 c107 -40 177 -144 178 -262 0 -38 -1 -68 -3 -68 -2 0 -21 9 -43 19
-96 46 -87 46 -1084 46 -997 0 -988 0 -1084 -46 -22 -10 -41 -19 -43 -19 -2 0
-3 30 -3 68 0 117 69 220 176 262 47 18 85 19 951 20 877 0 904 -1 955 -20z
m13 -574 c28 -13 65 -39 83 -58 l33 -35 -203 -170 c-305 -254 -315 -261 -353
-269 -27 -5 -219 38 -832 187 -439 106 -800 194 -802 195 -9 7 53 96 84 120
72 55 38 53 1025 53 l915 1 50 -24z"/>
</g>
</svg>
